<svg width="80" height="80" viewBox="0 0 80 80" fill="none" xmlns="http://www.w3.org/2000/svg">
<path d="M40 80C62.0914 80 80 62.0914 80 40C80 17.9086 62.0914 0 40 0C17.9086 0 0 17.9086 0 40C0 62.0914 17.9086 80 40 80Z" fill="black"/>
<path d="M69.3069 21.6503L63.692 25.7277L66.5062 17.7986L64.7618 15.3984L54.833 22.6152L56.5774 25.0154L62.1519 20.9622L59.3754 28.8644L61.1198 31.2646L71.0486 24.0505L69.3069 21.6503Z" fill="white"/>
<path d="M74.495 42.4035L67.5551 42.3981L74.4977 37.6434L74.5004 34.676L62.2252 34.668L62.2225 37.6353L69.1167 37.638L62.2198 42.3954V45.3627L74.4923 45.3681L74.495 42.4035Z" fill="white"/>
<path d="M53.3562 14.9017L53.0632 11.9262L51.5553 12.3052L51.0715 7.31128L48.2117 6.42969L41.5137 14.4367L42.2018 17.4927L49.1901 15.88L49.569 19.6967L52.3805 20.5622L51.8429 15.2591L53.3562 14.9017ZM45.4889 13.8265L48.6149 10.1738L48.8836 12.9745L45.4889 13.8265Z" fill="white"/>
<path d="M13.9932 46.1518C14.9245 45.0162 15.3672 43.5575 15.2242 42.0959C15.1194 41.0208 14.598 40.3999 14.012 40.459C13.3159 40.5262 13.117 41.3406 12.9691 42.6657C12.7622 44.7192 12.5257 47.5898 9.63089 47.872C7.58277 48.0709 5.6368 46.5039 5.33039 43.3726C5.13955 41.4132 5.56154 39.6526 6.55065 38.2469L8.96968 39.7467C8.27518 40.7996 7.9491 42.0529 8.04239 43.3108C8.14453 44.3563 8.60414 44.7165 9.13633 44.6547C9.77603 44.5929 9.92386 43.8214 10.0475 42.4399C10.2733 40.3864 10.5851 37.5454 13.3508 37.2766C15.8048 37.0374 17.611 38.6931 17.9201 41.9695C18.162 44.4423 17.5572 46.2378 16.5063 47.579L13.9932 46.1518Z" fill="white"/>
<path d="M20.27 50.382L9.81152 56.8086L11.3651 59.3368L21.8236 52.9102L20.27 50.382Z" fill="white"/>
<path d="M19.4683 31.2053L15.3909 28.9529L17.5572 25.0314L21.6346 27.2865L23.0699 24.6901L12.3294 18.75L10.8941 21.3464L15.0522 23.6445L12.8831 27.566L8.72509 25.2679L7.28979 27.8644L18.033 33.8017L19.4683 31.2053Z" fill="white"/>
<path d="M30.3261 6.68231L29.0521 13.2836L23.5152 9.47226L20.8623 10.5608L25.5149 21.9168L28.3129 20.7718L25.5767 14.0899L28.8827 16.5143L31.4415 15.4661L32.0973 11.4182L34.8362 18.1001L37.6315 16.9524L32.9789 5.59375L30.3261 6.68231Z" fill="white"/>
<path d="M19.2404 62.7216C18.9459 63.1894 18.7465 63.7106 18.6536 64.2554C18.5607 64.8003 18.5761 65.3582 18.6989 65.8971C18.8217 66.4361 19.0495 66.9455 19.3694 67.3963C19.6892 67.8472 20.0947 68.2305 20.5628 68.5245L26.2798 72.1181L32.8111 61.7298L30.3007 60.1493L28.2472 63.4177L26.2529 62.1625L26.5781 57.8083L23.5328 55.8945L23.342 60.789C22.5451 60.6854 21.7352 60.8124 21.0083 61.1549C20.2814 61.4974 19.6678 62.0411 19.2404 62.7216ZM21.6594 64.2482C21.8492 63.9469 22.1508 63.7332 22.498 63.654C22.8453 63.5749 23.2097 63.6369 23.5113 63.8263L26.7179 65.8421L25.288 68.116L22.0841 66.1001C21.7857 65.9105 21.5741 65.6108 21.4951 65.2662C21.4161 64.9216 21.4761 64.5597 21.6621 64.259L21.6594 64.2482Z" fill="white"/>
<path d="M34.5581 71.6354L34.5608 74.5006L43.702 74.4979L43.6993 62.2227H40.732V66.8833H35.8724V69.7485H40.7347V71.6327L34.5581 71.6354Z" fill="white"/>
</svg>
